<?xml version="1.0" standalone="no"?>
<!DOCTYPE svg PUBLIC "-//W3C//DTD SVG 20010904//EN"
 "http://www.w3.org/TR/2001/REC-SVG-20010904/DTD/svg10.dtd">
<svg version="1.0" xmlns="http://www.w3.org/2000/svg"
 width="16.000000pt" height="16.000000pt" viewBox="0 0 16.000000 16.000000"
 preserveAspectRatio="xMidYMid meet">
<metadata>
Created by potrace 1.11, written by Peter Selinger 2001-2013
</metadata>
<g transform="translate(0.000000,16.000000) scale(0.003200,-0.003200)"
fill="#000000" stroke="none">
<path d="M2414 4541 c-2 -2 -21 -5 -42 -7 -93 -7 -166 -19 -268 -45 -43 -10
-89 -22 -102 -24 -35 -8 -240 -93 -286 -119 -22 -13 -63 -36 -91 -51 -27 -15
-94 -61 -149 -102 -300 -227 -509 -521 -616 -868 -64 -208 -75 -287 -74 -525
0 -196 7 -265 40 -395 114 -451 376 -816 764 -1066 67 -44 260 -142 260 -133
0 4 6 2 13 -4 19 -16 197 -73 267 -86 14 -2 36 -7 50 -10 124 -29 357 -40 515
-24 316 32 647 168 900 371 89 71 258 251 328 347 143 200 266 499 301 732 27
176 25 427 -4 573 -6 28 -12 61 -15 74 -22 114 -100 326 -166 448 -56 103
-159 251 -220 318 -260 282 -535 451 -882 540 -73 18 -163 36 -202 40 -87 8
-112 12 -124 19 -5 4 -12 2 -16 -4 -4 -6 -12 -7 -18 -3 -12 7 -156 11 -163 4z"/>
<path d="M1982 866 c-13 -44 -32 -116 -44 -158 -20 -70 -37 -99 -39 -65 -1 20
-37 153 -62 227 -3 8 -8 28 -12 43 -4 22 -10 28 -28 25 -14 -2 -20 -9 -18 -18
8 -29 60 -206 81 -275 12 -38 26 -88 31 -109 6 -22 13 -44 16 -49 3 -5 23 50
44 122 21 73 49 167 63 209 34 106 34 113 11 122 -19 7 -23 1 -43 -74z"/>
<path d="M288 927 c-2 -7 -3 -106 -3 -222 1 -202 2 -210 21 -207 10 2 20 5 22
7 1 1 3 48 3 103 0 69 4 101 12 104 7 2 37 3 67 3 l55 0 3 -106 c2 -97 5 -107
22 -112 23 -6 22 -25 24 223 2 209 1 219 -22 216 -14 -2 -17 -18 -20 -94 l-3
-92 -69 0 -70 0 0 93 c0 84 -2 93 -19 94 -11 1 -21 -4 -23 -10z"/>
<path d="M635 913 c-42 -44 -54 -93 -52 -218 2 -106 4 -115 30 -149 40 -52 73
-66 116 -51 69 23 100 103 96 247 -4 139 -43 198 -130 198 -24 0 -42 -8 -60
-27z m105 -23 c29 -15 42 -72 41 -177 -2 -142 -35 -200 -100 -174 -23 10 -33
23 -42 54 -14 53 -14 207 1 251 17 51 56 69 100 46z"/>
<path d="M919 910 c-3 -108 0 -400 4 -407 4 -7 71 -8 200 -4 21 1 28 5 25 19
-3 14 -15 17 -68 18 -36 1 -77 2 -92 3 l-28 1 1 163 c1 246 2 233 -21 233 -15
0 -20 -7 -21 -26z"/>
<path d="M1220 719 l0 -219 23 -1 c26 -1 189 -1 200 0 4 1 7 9 7 20 0 16 -8
18 -67 18 -38 1 -80 1 -94 2 l-26 1 0 198 c0 195 0 197 -21 198 -22 1 -22 1
-22 -217z"/>
<path d="M1484 932 c-7 -5 8 -50 48 -137 49 -110 58 -138 57 -185 -2 -110 0
-118 19 -116 14 2 18 17 22 97 5 97 6 100 86 268 22 46 28 68 20 73 -23 15
-33 7 -55 -44 -12 -29 -32 -77 -44 -105 -12 -29 -24 -53 -27 -53 -3 0 -26 47
-50 105 -44 101 -53 113 -76 97z"/>
<path d="M2116 930 c-1 -3 -1 -101 -1 -219 l0 -214 108 -1 c103 -1 107 0 107
21 0 20 -4 21 -85 20 l-86 -2 3 90 3 89 69 1 c58 0 70 3 72 18 2 15 -7 17 -71
17 l-74 0 2 73 2 72 83 0 c76 0 82 1 82 21 0 19 -5 20 -106 20 -58 -1 -107 -3
-108 -6z"/>
<path d="M2429 930 c0 -3 -2 -101 -2 -218 -1 -135 2 -212 8 -213 14 -1 176 -1
202 0 14 1 20 7 19 19 -3 15 -15 17 -92 18 l-89 0 -3 201 c-2 194 -3 202 -22
200 -11 -1 -20 -4 -21 -7z"/>
<path d="M2697 931 c-9 -17 0 -36 16 -33 16 3 17 -12 17 -184 0 -159 -2 -185
-15 -181 -17 7 -27 -6 -20 -25 4 -9 24 -13 68 -12 125 2 161 25 181 116 30
134 -4 294 -67 314 -28 9 -177 13 -180 5z m176 -50 c23 -23 36 -92 34 -183 -3
-110 -20 -148 -73 -159 -59 -12 -60 -10 -60 176 -1 102 3 173 9 177 13 8 79 0
90 -11z"/>
<path d="M3339 916 c-1 -28 -1 -352 0 -393 1 -24 5 -31 19 -29 15 2 18 18 22
112 l5 109 70 0 c58 0 70 3 73 18 3 15 -6 17 -72 17 l-76 0 0 75 0 74 73 -1
c105 -1 109 0 105 19 -3 15 -17 18 -111 18 -101 1 -107 0 -108 -19z"/>
<path d="M3640 919 c0 -19 9 -23 43 -20 16 2 17 -12 17 -178 0 -138 -3 -181
-12 -182 -7 -1 -20 -2 -28 -3 -8 0 -16 -10 -18 -21 -2 -18 3 -20 60 -19 111 3
107 2 101 24 -3 12 -13 20 -22 19 -38 -3 -38 -2 -37 179 l1 177 30 0 c23 1 30
5 30 20 0 17 -9 19 -82 21 -76 2 -83 0 -83 -17z"/>
<path d="M3945 932 c-6 -4 -10 -89 -10 -219 l0 -213 25 -1 c170 -7 214 -1 204
25 -4 10 -27 13 -92 12 l-87 -1 -5 199 c-5 191 -9 217 -35 198z"/>
<path d="M4209 926 c-3 -24 -8 -148 -12 -283 l-4 -143 22 0 c25 0 23 -19 28
288 1 34 4 62 8 62 3 0 18 -39 33 -87 23 -76 45 -130 46 -113 0 3 9 33 21 65
12 33 22 67 24 75 5 22 24 70 28 70 2 0 4 -37 4 -82 0 -46 1 -129 2 -184 l1
-101 25 4 c24 5 24 6 20 97 -2 50 -5 146 -6 213 -2 105 -5 123 -19 128 -31 10
-45 -5 -64 -68 -11 -34 -25 -75 -31 -91 l-12 -29 -18 54 c-39 125 -45 137 -71
137 -13 0 -25 -6 -25 -12z"/>
<path d="M4559 911 c-26 -27 -35 -55 -30 -101 4 -33 25 -58 76 -89 29 -18 60
-40 68 -49 37 -43 27 -113 -18 -134 -35 -16 -72 3 -91 48 -17 40 -37 41 -42 2
-4 -33 40 -85 81 -96 24 -7 41 -4 69 10 97 48 88 182 -17 235 -53 27 -85 64
-85 98 0 65 77 90 108 35 19 -34 52 -41 52 -11 0 10 -13 33 -29 50 -40 43
-100 44 -142 2z"/>
</g>
</svg>
